<?xml version="1.0" standalone="no"?>
<!DOCTYPE svg PUBLIC "-//W3C//DTD SVG 20010904//EN"
 "http://www.w3.org/TR/2001/REC-SVG-20010904/DTD/svg10.dtd">
<svg version="1.0" xmlns="http://www.w3.org/2000/svg"
 width="300.000000pt" height="300.000000pt" viewBox="0 0 300.000000 300.000000"
 preserveAspectRatio="xMidYMid meet">
<metadata>
Created by potrace 1.10, written by Peter Selinger 2001-2011
</metadata>
<g transform="translate(0.000000,300.000000) scale(0.100000,-0.100000)"
fill="#000000" stroke="none">
<path d="M1315 2735 c-325 -51 -622 -229 -817 -490 -71 -95 -169 -291 -198
-395 -86 -310 -59 -614 79 -895 303 -617 1036 -877 1649 -585 268 128 463 320
593 585 171 348 171 742 0 1090 -71 145 -152 255 -264 361 -278 263 -671 388
-1042 329z m415 -51 c680 -129 1110 -805 940 -1480 -54 -214 -160 -401 -318
-559 -167 -167 -375 -278 -617 -331 -122 -26 -360 -24 -488 5 -236 54 -434
161 -600 326 -471 467 -473 1234 -6 1706 190 191 468 326 714 346 39 3 72 8
75 10 9 9 217 -7 300 -23z"/>
<path d="M1405 2664 c-167 -22 -284 -54 -400 -110 -261 -123 -479 -355 -586
-621 -63 -158 -73 -220 -74 -433 0 -183 2 -201 28 -295 48 -174 165 -389 247
-459 18 -14 35 -26 39 -26 5 0 38 27 76 60 107 94 215 146 385 184 87 20 113
35 140 79 30 49 25 93 -18 167 -95 164 -131 305 -132 520 -1 110 3 147 19 202
39 123 126 217 236 255 68 23 194 23 266 0 113 -37 201 -131 239 -254 16 -51
20 -93 20 -197 0 -218 -34 -360 -121 -507 -55 -94 -61 -134 -29 -186 27 -45
53 -59 151 -82 171 -40 283 -96 386 -192 28 -27 56 -49 62 -49 20 0 82 63 126
130 66 99 132 245 163 357 24 90 26 113 26 293 0 182 -2 202 -27 295 -119 432
-465 758 -904 850 -74 15 -264 27 -318 19z m303 -60 c366 -65 693 -331 832
-677 151 -376 95 -790 -148 -1112 l-49 -64 -31 38 c-39 48 -150 123 -234 158
-35 15 -112 38 -172 53 -90 21 -113 31 -129 52 -30 40 -24 81 22 151 78 122
114 244 131 445 16 192 -7 311 -81 422 -144 214 -472 242 -653 55 -94 -96
-130 -209 -128 -396 2 -208 48 -389 134 -525 61 -97 45 -173 -39 -188 -202
-36 -396 -129 -475 -227 l-31 -39 -62 83 c-289 393 -291 941 -3 1328 264 356
677 520 1116 443z"/>
<path d="M1415 2156 c-67 -17 -103 -37 -148 -83 -83 -82 -117 -179 -117 -333
0 -190 44 -360 128 -499 41 -67 47 -82 46 -132 -1 -63 -26 -115 -71 -144 -14
-10 -78 -30 -142 -46 -215 -53 -391 -169 -391 -257 0 -44 182 -175 327 -236
297 -124 613 -123 917 4 139 58 316 189 316 234 0 51 -102 144 -217 198 -34
16 -113 42 -176 57 -63 16 -126 36 -140 46 -45 29 -72 83 -72 145 0 49 6 65
47 130 93 151 123 267 123 490 0 138 -3 161 -23 212 -26 63 -106 159 -155 185
-71 36 -176 49 -252 29z m222 -62 c130 -62 180 -182 170 -408 -9 -195 -42
-308 -134 -450 -34 -53 -38 -66 -38 -125 0 -120 70 -198 201 -222 96 -18 205
-56 269 -94 63 -38 145 -112 145 -130 -1 -14 -141 -116 -220 -158 -152 -82
-344 -129 -530 -129 -251 0 -477 75 -684 229 -36 26 -66 53 -66 59 0 16 88 96
140 127 64 37 163 73 256 92 152 31 219 100 219 226 0 59 -4 72 -38 125 -88
137 -124 260 -134 455 -8 169 13 255 83 338 80 95 236 123 361 65z"/>
</g>
</svg>
